<svg xmlns="http://www.w3.org/2000/svg" viewBox="0 0 100 100" fill="oklch(45% .062 210)"
    class="size-9 shrink-0 text-primary"
    aria-hidden="true">
    <defs>
        <clipPath id="sea-globe">
            <circle cx="50" cy="50" r="48"></circle>
        </clipPath>
    </defs>
    <circle cx="50" cy="50" r="48" fill="none" stroke="oklch(45% .062 210)" stroke-width="4"></circle>
    <g clip-path="url(#sea-globe)">
        <g transform="translate(30 13) scale(0.85)">
            <path
                d="M30.328 26.044V6.954C30.328 3.12 27.208 0 23.374 0s-6.955 3.12-6.955 6.955v19.09c-3.617 2.546-5.544 6.83-5.044 11.275.619 5.504 5.064 9.96 10.569 10.596 7.46.86 13.508-4.997 13.508-12a12.04 12.04 0 0 0-5.124-9.872zm-8.219 20.441c-4.845-.56-8.758-4.482-9.304-9.327-.452-4.034 1.359-7.916 4.73-10.13a.72.72 0 0 0 .324-.603V6.955c0-3.041 2.474-5.515 5.515-5.515s5.514 2.474 5.514 5.515v19.47a.72.72 0 0 0 .324.602 10.607 10.607 0 0 1 4.8 8.889c0 6.18-5.334 11.323-11.903 10.57z"></path>
            <path
                d="M26.222 28.252V14.265a.207.207 0 0 0-.101-.178l-5.285-3.119a.207.207 0 0 0-.312.178v17.106l-1.526 1.003c-2.527 1.66-3.885 4.574-3.543 7.606.43 3.83 3.72 7.033 7.924 7.033 4.65 0 8.381-4.01 7.93-8.757-.443-4.65-4.595-6.438-5.087-6.885z"></path>
            <path
                d="M32.69 6.55h2.042a.72.72 0 0 0 0-1.44H32.69a.72.72 0 0 0 0 1.44zm0 4.134h3.293a.72.72 0 0 0 0-1.44H32.69a.72.72 0 0 0 0 1.44zm0 4.134h2.042a.72.72 0 0 0 0-1.44H32.69a.72.72 0 0 0 0 1.44zm3.293 2.694H32.69a.72.72 0 0 0 0 1.44h3.293a.72.72 0 0 0 0-1.44zm-1.251 4.133H32.69a.72.72 0 0 0 0 1.44h2.042a.72.72 0 0 0 0-1.44z"></path>
        </g>
        <path
            d="M2 74.028c4.462.673 5.02 6.05 11.215 6.05 6.577 0 6.807-6.131 12.26-6.131 5.464 0 5.646 6.13 12.255 6.13 6.572 0 6.798-6.13 12.258-6.13 5.468 0 5.65 6.13 12.263 6.13 6.577 0 6.806-6.13 12.259-6.13 5.468 0 5.654 6.13 12.266 6.13 6.225 0 6.73-5.372 11.224-6.049v8.348c-5.675.64-6.011 6.063-11.224 6.063-5.47 0-5.652-6.13-12.266-6.13-6.578 0-6.807 6.13-12.26 6.13-5.468 0-5.65-6.13-12.262-6.13-6.577 0-6.806 6.13-12.258 6.13-5.465 0-5.647-6.13-12.256-6.13-6.577 0-6.807 6.13-12.259 6.13-5.126 0-5.61-5.43-11.215-6.063v-8.348zm11.215-4.398c6.577 0 6.807-6.13 12.26-6.13 5.464 0 5.646 6.13 12.255 6.13 6.572 0 6.798-6.13 12.258-6.13 5.468 0 5.65 6.13 12.263 6.13 6.577 0 6.806-6.13 12.259-6.13 5.468 0 5.654 6.13 12.266 6.13 6.2 0 6.778-5.392 11.224-6.056v8.354c-2.822.318-4.414 1.89-5.828 3.303-1.481 1.48-2.761 2.76-5.396 2.76-5.47 0-5.652-6.13-12.266-6.13-6.578 0-6.807 6.13-12.26 6.13-5.468 0-5.65-6.13-12.262-6.13-6.577 0-6.806 6.13-12.258 6.13-5.465 0-5.647-6.13-12.256-6.13-6.577 0-6.807 6.13-12.259 6.13-5.126 0-5.61-5.43-11.215-6.063v-8.354c4.468.668 5.005 6.056 11.215 6.056zM2 94.294v-9.818c4.462.673 5.02 6.05 11.215 6.05 6.577 0 6.807-6.13 12.26-6.13 5.464-.001 5.646 6.13 12.255 6.13 6.572 0 6.798-6.13 12.258-6.13 5.468-.001 5.65 6.13 12.263 6.13 6.577 0 6.806-6.13 12.259-6.13 5.468-.001 5.654 6.13 12.266 6.13 6.225 0 6.73-5.373 11.224-6.05v9.818a2.61 2.61 0 0 1-2.61 2.61H4.61A2.61 2.61 0 0 1 2 94.295z"></path>
    </g>
</svg>